<svg xmlns="http://www.w3.org/2000/svg" width="640.507" height="630.652" viewBox="0 0 480.38 472.989"><path fill="#ffa91a" d="M231.87 1.86c5.03-2.38 11.06-2.49 16.16-.25 18.88 8.54 37.49 17.68 56.39 26.18 2 4.64 4.76 9.29 4.5 14.53-.33 7.39-1.4 14.73-1.91 22.12-10.97-4.99-21.82-10.26-32.81-15.22-9.63-4.16-18.95-9-28.57-13.18-3.88-1.71-8.37-1.31-12.1.57-19.53 9.16-39.04 18.36-58.62 27.41-3.51 1.53-7.13 3.46-9.04 6.94-3.12 4.94-1.88 11.02-1.43 16.48 2.48 23.6 7.46 47.52 19.28 68.36a118.07 118.07 0 0 0 19.33 25.03c9.47 9.41 21.3 16.59 34.21 20.11-3.68 1.14-6.68 3.65-10.04 5.44-5.12 2.77-10.43 5.21-15.92 7.15-4.08 1.5-8.5 1.79-12.52 3.48l-.12.04c-17.77-14.14-32.24-32.23-42.56-52.42-14.3-28.66-20.7-60.56-23.76-92.23-.3-5.38-1.48-10.91.08-16.2 1.58-5.72 5.75-10.64 11.17-13.07 29.45-13.71 58.84-27.54 88.28-41.27M143.6 66.71c-1.7.39-3.57 1.63-3.35 3.62-.7 3.1 3.05 6.9 6 5.02 3.99-2 2.06-9.45-2.65-8.64m2.02 17.09c-2.74.35-3.99 3.11-3.29 5.62 3.67 24.51 9.63 48.95 20.62 71.28 7.56 14.41 17 27.92 28.59 39.37 1.78 2.06 5.36 1.55 6.42-1 1.49-2.64-1.27-4.85-2.72-6.76-11.2-11.89-20.83-25.41-27.51-40.35-9.18-20.13-14.08-41.87-17.49-63.64-.06-2.39-1.95-5.15-4.62-4.52z"/><path fill="#f79219" d="M304.42 27.79c5.93 2.56 11.65 5.6 17.64 8.03l.25.35c3.93 4.81 7.06 10.69 6.48 17.11-2.13 31.02-7.52 62.2-19.69 90.97-9.7 22.82-24.47 43.57-43.4 59.63-12.01 9.48-25.47 17.57-40.4 21.4-5.13 1.52-10.28-.5-15.43-.75l-.57-.06c-3.49-2.51-7.21-4.7-10.52-7.46 4.02-1.69 8.44-1.98 12.52-3.48 5.49-1.94 10.8-4.38 15.92-7.15 3.36-1.79 6.36-4.3 10.04-5.44 5.35 1.02 10.45-1.36 15.31-3.23 20.23-8.71 35.75-25.87 46.08-44.97 11.78-22.62 16.34-48.22 18.22-73.42.44-6.49-3.87-12.58-9.86-14.88.51-7.39 1.58-14.73 1.91-22.12.26-5.24-2.5-9.89-4.5-14.53z"/><path fill="#f1f2f2" d="M233.53 36.61c3.73-1.88 8.22-2.28 12.1-.57 9.62 4.18 18.94 9.02 28.57 13.18 4.78 11.21.6 23.49-.12 35.08-2.38 1.14-4.48 2.81-5.99 4.98-11.05 14.68-22.23 29.26-33.28 43.93-6.95-6.15-13.67-12.57-20.64-18.71-3.87-3.72-10.66-3.45-14.15.66-3.62 3.79-3.35 10.41.57 13.9 9.5 8.79 19.11 17.47 28.68 26.18 2.49 2.44 6.06 3.01 9.41 2.56.19 1.91-1.41 3.18-2.62 4.38-9.58 8.36-20.53 15.57-33.01 18.65a118.07 118.07 0 0 1-19.33-25.03c-11.82-20.84-16.8-44.76-19.28-68.36-.45-5.46-1.69-11.54 1.43-16.48 1.91-3.48 5.53-5.41 9.04-6.94 19.58-9.05 39.09-18.25 58.62-27.41z"/><path fill="#ef7816" d="M322.31 36.17c5.98 2.62 12.06 5.12 17.7 8.44 6.14 4.02 9.53 11.55 9.2 18.8-3.03 37.13-9.76 75.07-28.16 107.97-15.37 26.65-38.07 50.43-67.29 61.51-5.67 1.81-11.66 4.59-17.7 2.87-9.22-2.38-18.21-6.01-26.19-11.23 5.15.25 10.3 2.27 15.43.75 14.93-3.83 28.39-11.92 40.4-21.4 18.93-16.06 33.7-36.81 43.4-59.63 12.17-28.77 17.56-59.95 19.69-90.97.58-6.42-2.55-12.3-6.48-17.11z"/><path fill="#e6e7e8" d="M274.2 49.22c10.99 4.96 21.84 10.23 32.81 15.22 5.99 2.3 10.3 8.39 9.86 14.88-1.88 25.2-6.44 50.8-18.22 73.42-10.33 19.1-25.85 36.26-46.08 44.97-4.86 1.87-9.96 4.25-15.31 3.23-12.91-3.52-24.74-10.7-34.21-20.11 12.48-3.08 23.43-10.29 33.01-18.65 1.21-1.2 2.81-2.47 2.62-4.38 2.45-1.04 4.69-2.6 6.22-4.81 13.19-17.43 26.43-34.83 39.63-52.26 3.25-3.77 3.37-9.89-.2-13.5-2.53-2.9-6.62-3.55-10.25-2.93.72-11.59 4.9-23.87.12-35.08z"/><g fill="#ffc91d"><path d="M143.6 66.71c4.71-.81 6.64 6.64 2.65 8.64-2.95 1.88-6.7-1.92-6-5.02-.22-1.99 1.65-3.23 3.35-3.62zM145.62 83.8c2.67-.63 4.56 2.13 4.62 4.52 3.41 21.77 8.31 43.51 17.49 63.64 6.68 14.94 16.31 28.46 27.51 40.35 1.45 1.91 4.21 4.12 2.72 6.76-1.06 2.55-4.64 3.06-6.42 1-11.59-11.45-21.03-24.96-28.59-39.37-10.99-22.33-16.95-46.77-20.62-71.28-.7-2.51.55-5.27 3.29-5.62z"/></g><path fill="#414042" d="M268.09 89.28c1.51-2.17 3.61-3.84 5.99-4.98 3.63-.62 7.72.03 10.25 2.93 3.57 3.61 3.45 9.73.2 13.5-13.2 17.43-26.44 34.83-39.63 52.26-1.53 2.21-3.77 3.77-6.22 4.81-3.35.45-6.92-.12-9.41-2.56-9.57-8.71-19.18-17.39-28.68-26.18-3.92-3.49-4.19-10.11-.57-13.9 3.49-4.11 10.28-4.38 14.15-.66 6.97 6.14 13.69 12.56 20.64 18.71 11.05-14.67 22.23-29.25 33.28-43.93z"/><g fill="#377de2"><path d="M81.32 184.27c16.73 9.53 33.28 19.39 50.09 28.77-17.88 30.09-35.06 60.6-52.64 90.87-2.64 4.2-4.58 9.59-9.53 11.59-3.57 1.64-7.75.89-11.02-1.09-12.95-7.67-26.07-15.06-39.1-22.6 20.9-35.75 41.4-71.73 62.2-107.54zM349.1 213.06c16.81-9.37 33.37-19.21 50.08-28.78 20.78 35.83 41.31 71.81 62.21 107.56-13.09 7.46-26.11 15.05-39.16 22.56-3.47 2.13-8.04 2.82-11.7.78-2.88-1.39-4.7-4.11-6.25-6.79-12.13-21.2-24.45-42.29-36.6-63.47-6.23-10.6-12.09-21.41-18.58-31.86z"/></g><g fill="#2266d3"><path d="M131.41 213.04c8.98 4.12 11.58 16.47 5.9 24.3-16.28 28.37-32.68 56.66-49.02 84.99-2.79 4.7-5.34 9.55-8.34 14.13-2.21 3.33-4.19 6.79-6 10.36-2.66 5.99-9.16 10.03-15.73 9.55-3.99-.06-7.44-2.3-10.77-4.23C31.67 342.89 15.7 333.97 0 324.59c6.53-10.84 12.57-21.96 19.12-32.78 13.03 7.54 26.15 14.93 39.1 22.6 3.27 1.98 7.45 2.73 11.02 1.09 4.95-2 6.89-7.39 9.53-11.59 17.58-30.27 34.76-60.78 52.64-90.87zM343.26 237.44c-5.82-7.78-3.24-20.33 5.84-24.38 6.49 10.45 12.35 21.26 18.58 31.86 12.15 21.18 24.47 42.27 36.6 63.47 1.55 2.68 3.37 5.4 6.25 6.79 3.66 2.04 8.23 1.35 11.7-.78 13.05-7.51 26.07-15.1 39.16-22.56 6.44 10.95 12.93 21.89 18.99 33.05-17.35 9.8-34.48 19.99-51.84 29.76-7.91 4.34-18.48.28-22.11-7.81-1.93-3.36-3.86-6.72-5.84-10.05-19.16-33.09-38.3-66.19-57.33-99.35z"/></g><path fill="#fcc4ae" d="M88.29 322.33c16.34-28.33 32.74-56.62 49.02-84.99 16.36 9.31 32.59 18.84 48.94 28.16 2.75 1.45 4.78 4.05 7.87 4.9-1.31-1.61-3.21-2.5-4.75-3.84 3.01-4.44 5.25-9.35 8.28-13.78 5.45-7.64 16.63-10.32 24.93-5.92 5.94 3.25 11.75 6.72 17.61 10.1-10.2 6.17-20.72 11.78-30.85 18.06-8.49 5.22-17.32 9.88-25.85 15.04-3.03 1.89-7.61 2.8-9.06 6.26 4.93 13.04 18.77 22.24 32.77 21.42 14.9-.19 25.73-12.08 38.89-17.25 2.58.83 4.83 2.41 7.18 3.74 33.91 19.66 67.92 39.17 101.84 58.82 3.93 2.18 7.75 4.56 11.65 6.8 7.64 3.12 12.35 11.43 11.01 19.61-3.99 1.95-8.3 4.02-12.87 3.41-5.68-.63-10.25-4.3-15.08-7-18.43-10.52-36.75-21.25-55.15-31.83-2.4-1.48-4.9-2.78-7.45-3.97-2.11 3.28-4.06 6.67-5.8 10.16 24.22 14.08 48.6 27.9 72.71 42.16 4.97 2.86 10.84 5.09 13.91 10.26 2.42 3.69 2.86 8.24 2.4 12.54-5.87 3.13-13.1 4.73-19.2 1.22-27.1-15.35-53.86-31.32-81.03-46.54-2.28 3.25-4.35 6.64-6 10.24 14.94 8.47 29.76 17.16 44.65 25.72 7.72 4.62 15.75 8.72 23.16 13.84 5.22 3.7 7.11 10.48 6.35 16.61-5.86 3.36-13.31 4.81-19.45 1.3-22-12.67-43.94-25.47-66-38.02-2.21 3.35-4.43 6.74-5.77 10.56 12.71 7.24 25.56 14.28 37.93 22.11 4.95 3.75 6.95 10.21 6.32 16.24-5.13 3.56-11.94 5.28-17.82 2.46-6.59-3.19-12.71-7.27-19.17-10.72-2.05-1.28-4.76-2.19-5.53-4.72 1.83-6.32-.12-13.28-4.83-17.82-2.57-1.96-5.49-3.61-8.71-4.15-4.2-.79-8.39.57-12.35 1.86 6.02-6.95 5.82-18.22-1.05-24.52-5.7-5.36-14.13-5.28-21.03-2.57 2.46-3.48 4.47-7.53 4.28-11.9.14-4.73-2.18-9.14-5.39-12.48-3.46-2.94-7.99-4.95-12.6-4.5-2.83.43-5.58 1.33-8.44 1.58 6.16-6.76 5.48-17.92-1.22-24.06-4.52-3.6-10.72-5.73-16.38-3.78-6.55 2.35-12.21 6.52-18.28 9.83-5.9 3.21-11.5 6.97-17.6 9.81-15.17-8.67-30.45-17.18-45.33-26.33 3-4.58 5.55-9.43 8.34-14.13m106.98-51.63c-.04 1.6 2.3 2.85 3.74 2.45.18-1.55-2.37-2.91-3.74-2.45m5.24 2.89c-.18 1.57 1.83 2.44 3.09 2.8 1.57.61 1.58-1.23.27-1.55-1.02-.48-2.15-1.76-3.36-1.25z"/><g fill="#f2ad97"><path d="M291.36 267.25c17.31-9.91 34.48-20.09 51.9-29.81 19.03 33.16 38.17 66.26 57.33 99.35-15.2 8.67-30.39 17.38-45.48 26.26-33.92-19.65-67.93-39.16-101.84-58.82-2.35-1.33-4.6-2.91-7.18-3.74-13.16 5.17-23.99 17.06-38.89 17.25-14 .82-27.84-8.38-32.77-21.42 1.45-3.46 6.03-4.37 9.06-6.26 2.39 4.2 5.98 8.3 11.07 8.89 6.14 1.07 11.31-3.07 16.38-5.8 2.55-1.28 5.2-3.58 4.46-6.78-1.15-4.18-3.91-7.66-6.06-11.35 10.13-6.28 20.65-11.89 30.85-18.06 5.92-3.26 11.68-6.81 17.61-10.06 7.25-3.84 16.77-2.43 22.67 3.24 4.75 4.89 7.23 11.44 10.89 17.11zM73.95 346.82c1.81-3.57 3.79-7.03 6-10.36 14.88 9.15 30.16 17.66 45.33 26.33 6.1-2.84 11.7-6.6 17.6-9.81 6.07-3.31 11.73-7.48 18.28-9.83 5.66-1.95 11.86.18 16.38 3.78-.37 2.56-.79 5.12-1 7.7-1.97-2.56-3.95-5.54-7.21-6.5-4.52-1.5-9.22.89-12.66 3.72-1.75 1.27-1.48 3.81-.46 5.47 1.99 3.66 4.18 7.21 6.1 10.9-13.38 7.68-26.66 15.53-40.09 23.11-6.22 3.6-13.85 1.99-19.52-1.88-1.39-8.29 3.51-16.6 11.23-19.73-13.39-7.51-26.55-15.44-39.98-22.9zM281.42 360.23c1.74-3.49 3.69-6.88 5.8-10.16 2.55 1.19 5.05 2.49 7.45 3.97 18.4 10.58 36.72 21.31 55.15 31.83 4.83 2.7 9.4 6.37 15.08 7 4.57.61 8.88-1.46 12.87-3.41-.98 4.92-4.11 9.33-8.49 11.81-4.52 2.66-10.26 2.77-15.15 1.12-24.11-14.26-48.49-28.08-72.71-42.16zM178.76 370.99c2.86-.25 5.61-1.15 8.44-1.58 4.61-.45 9.14 1.56 12.6 4.5-.47 2.82-.91 5.66-.85 8.54-1.87-3.22-4.15-6.82-8.09-7.61-5.53-1.25-10.37 2.62-14.55 5.68 2.59 4.92 5.49 9.68 8.14 14.57-16.42 9.82-33.13 19.15-49.63 28.83-3.97 2.25-8.06 4.87-12.76 5.05-4.31.23-8.24-1.8-12.01-3.59-.85-5.79.71-12.07 5.13-16.11 3.31-2.9 7.36-4.79 11.26-6.76 8.66-3.94 16.08-9.99 24.45-14.43 9.23-5.79 19.37-10.19 27.87-17.09zM264.21 390.11c1.65-3.6 3.72-6.99 6-10.24 27.17 15.22 53.93 31.19 81.03 46.54 6.1 3.51 13.33 1.91 19.2-1.22-1.58 8.71-10.58 15.14-19.32 13.81-7.11-1.31-12.6-6.49-19.1-9.33-7.41-5.12-15.44-9.22-23.16-13.84-14.89-8.56-29.71-17.25-44.65-25.72zM200.91 398.29c6.9-2.71 15.33-2.79 21.03 2.57-.46 2.83-.87 5.7-.79 8.59-1.7-2.88-3.6-6.03-6.91-7.22-4.51-1.92-9.38.5-12.88 3.35-1.45 1.06-2.19 3.12-1.21 4.75 1.96 3.97 4.42 7.69 6.39 11.67-10.63 6.74-21.78 12.6-32.59 19.05-5.94 3.1-11.34 7.68-18.05 8.95-4.44.95-8.51-1.42-12.74-2.29l-.63-.38c-1.73-6.37.57-13.82 6-17.73 7.11-3.82 14.11-7.84 20.99-12.06 10.06-7.06 21.44-12.02 31.39-19.25zM247.15 420.12c1.34-3.82 3.56-7.21 5.77-10.56 22.06 12.55 44 25.35 66 38.02 6.14 3.51 13.59 2.06 19.45-1.3-1.76 10.43-14.16 17.23-23.81 12.67-9.99-5.27-19.53-11.36-29.48-16.72-12.37-7.83-25.22-14.87-37.93-22.11zM222.99 425.38c3.96-1.29 8.15-2.65 12.35-1.86 3.22.54 6.14 2.19 8.71 4.15-.42 2.6-.82 5.21-.96 7.85-2.57-4.57-7.75-8.57-13.22-6.48-3.15 1.41-8.3 2.97-7.84 7.28 1.7 4.57 4.72 8.51 6.93 12.85-7.11 3.77-13.9 8.12-21.02 11.87-6.13 3.16-13.63 1.67-18.87-2.53-.57-5.98 1.26-12.63 6.4-16.19 6.16-2.85 11.39-7.25 17.36-10.43 3.54-1.93 6.85-4.23 10.16-6.51zM240.47 456.04c3.73-2.63 6.88-6.2 8.41-10.55.77 2.53 3.48 3.44 5.53 4.72 6.46 3.45 12.58 7.53 19.17 10.72 5.88 2.82 12.69 1.1 17.82-2.46-1.19 7.08-7.11 13.14-14.27 14.18-4.31.92-8.8-.35-12.5-2.58-8.04-4.7-16.16-9.25-24.16-14.03z"/></g><path fill="#daa996" opacity=".87" d="M195.27 270.7c1.37-.46 3.92.9 3.74 2.45-1.44.4-3.78-.85-3.74-2.45z"/><path fill="#daaa96" opacity=".87" d="M200.51 273.59c1.21-.51 2.34.77 3.36 1.25 1.31.32 1.3 2.16-.27 1.55-1.26-.36-3.27-1.23-3.09-2.8z"/><g fill="#ffd2c0"><path d="M183.49 290.06c8.53-5.16 17.36-9.82 25.85-15.04 2.15 3.69 4.91 7.17 6.06 11.35.74 3.2-1.91 5.5-4.46 6.78-5.07 2.73-10.24 6.87-16.38 5.8-5.09-.59-8.68-4.69-11.07-8.89zM156.67 351.85c3.44-2.83 8.14-5.22 12.66-3.72 3.26.96 5.24 3.94 7.21 6.5.57 2.51 1.62 5.1.95 7.7-1.01 4.91-5.88 7.75-10.26 9.28-2.37.44-3.81-1.7-4.92-3.39-1.92-3.69-4.11-7.24-6.1-10.9-1.02-1.66-1.29-4.2.46-5.47zM176.31 380.52c4.18-3.06 9.02-6.93 14.55-5.68 3.94.79 6.22 4.39 8.09 7.61.49 2.23 1.33 4.54.73 6.85-1.08 4.94-5.98 7.87-10.47 9.3-2.33.3-3.66-1.85-4.76-3.51-2.65-4.89-5.55-9.65-8.14-14.57zM201.36 405.58c3.5-2.85 8.37-5.27 12.88-3.35 3.31 1.19 5.21 4.34 6.91 7.22 1.26 3.51 1.4 7.71-1.13 10.72-2.32 2.57-5.44 4.49-8.77 5.44-2.25.02-3.55-2.01-4.71-3.61-1.97-3.98-4.43-7.7-6.39-11.67-.98-1.63-.24-3.69 1.21-4.75zM229.87 429.04c5.47-2.09 10.65 1.91 13.22 6.48.78 2.75 1.73 5.69.76 8.52-1.38 4.32-5.72 6.81-9.72 8.32-2.4.78-4.1-1.42-5.17-3.19-2.21-4.34-5.23-8.28-6.93-12.85-.46-4.31 4.69-5.87 7.84-7.28z"/></g><g fill="#e59076"><path d="M355.11 363.05c15.09-8.88 30.28-17.59 45.48-26.26 1.98 3.33 3.91 6.69 5.84 10.05-13.23 7.66-26.57 15.14-39.67 23.01-3.9-2.24-7.72-4.62-11.65-6.8zM177.54 346.93c6.7 6.14 7.38 17.3 1.22 24.06-8.5 6.9-18.64 11.3-27.87 17.09-8.37 4.44-15.79 10.49-24.45 14.43-4.74 1.29-10.13 1.52-14.58-.87-4.73-2.38-8.1-7.02-9.16-12.19 5.67 3.87 13.3 5.48 19.52 1.88 13.43-7.58 26.71-15.43 40.09-23.11 1.11 1.69 2.55 3.83 4.92 3.39 4.38-1.53 9.25-4.37 10.26-9.28.67-2.6-.38-5.19-.95-7.7.21-2.58.63-5.14 1-7.7zM198.95 382.45c-.06-2.88.38-5.72.85-8.54 3.21 3.34 5.53 7.75 5.39 12.48.19 4.37-1.82 8.42-4.28 11.9-9.95 7.23-21.33 12.19-31.39 19.25-6.88 4.22-13.88 8.24-20.99 12.06-5.6 2.63-10.53 6.57-16.35 8.72-9.32 3.32-20.27-3.32-22.13-12.94 3.77 1.79 7.7 3.82 12.01 3.59 4.7-.18 8.79-2.8 12.76-5.05 16.5-9.68 33.21-19.01 49.63-28.83 1.1 1.66 2.43 3.81 4.76 3.51 4.49-1.43 9.39-4.36 10.47-9.3.6-2.31-.24-4.62-.73-6.85zM221.15 409.45c-.08-2.89.33-5.76.79-8.59 6.87 6.3 7.07 17.57 1.05 24.52-3.31 2.28-6.62 4.58-10.16 6.51-5.97 3.18-11.2 7.58-17.36 10.43-9.84 5.08-19.14 11.13-28.91 16.34-8.8 4.64-21.4-.59-23.63-10.41l.23-.54c4.23.87 8.3 3.24 12.74 2.29 6.71-1.27 12.11-5.85 18.05-8.95 10.81-6.45 21.96-12.31 32.59-19.05 1.16 1.6 2.46 3.63 4.71 3.61 3.33-.95 6.45-2.87 8.77-5.44 2.53-3.01 2.39-7.21 1.13-10.72zM243.09 435.52c.14-2.64.54-5.25.96-7.85 4.71 4.54 6.66 11.5 4.83 17.82-1.53 4.35-4.68 7.92-8.41 10.55-9.5 4.92-18.43 10.92-27.99 15.71-9.78 4.21-21.84-2.83-23.41-13.24 5.24 4.2 12.74 5.69 18.87 2.53 7.12-3.75 13.91-8.1 21.02-11.87 1.07 1.77 2.77 3.97 5.17 3.19 4-1.51 8.34-4 9.72-8.32.97-2.83.02-5.77-.76-8.52z"/></g></svg>